<?xml version="1.0" encoding="UTF-8"?>
<svg version="1.1" viewBox="0 0 64 64" xmlns="http://www.w3.org/2000/svg">
    <defs>
        <linearGradient id="a" x1="34.77" x2="25.43" y1="9.908" y2="28.43" gradientTransform="matrix(.9319 0 0 1.073 -.253 -.2098)" gradientUnits="userSpaceOnUse">
            <stop stop-color="#fff" stop-opacity="0" offset="0"/>
            <stop stop-color="#fff" stop-opacity=".2745" offset="1"/>
        </linearGradient>
    </defs>
    <path d="m32 9e-5c-2.849 6.984-4.579 11.56-7.75 18.34 1.944 2.061 4.334 4.453 8.211 7.164-4.168-1.715-7.009-3.432-9.133-5.219-4.059 8.47-10.42 20.53-23.33 43.72 10.14-5.854 18-9.466 25.33-10.84-0.314-1.351-0.481-2.819-0.469-4.344l8e-3 -0.32c0.161-6.498 3.542-11.5 7.547-11.16 4.004 0.339 7.122 5.884 6.961 12.38-0.031 1.224-0.173 2.4-0.414 3.492 7.247 1.418 15.03 5.013 25.04 10.79-1.973-3.632-3.74-6.905-5.422-10.02-2.649-2.053-5.411-4.724-11.05-7.617 3.874 1.007 6.65 2.171 8.812 3.469-17.1-31.84-18.48-36.07-24.34-49.83v-9e-5z" fill="#1793d1"/>
    <path d="m50.01 38.04c-13.87-18.83-17.09-34-17.9-37.62 7.4 17.07 7.349 17.28 17.9 37.62z" fill="#fff" fill-opacity=".1657"/>
    <path d="m32.12 0.2501c-0.36 0.8845-0.7 1.747-1.032 2.562-0.364 0.8946-0.718 1.756-1.062 2.594s-0.693 1.631-1.031 2.438c-0.339 0.8065-0.654 1.604-1 2.406-0.346 0.802-0.726 1.613-1.094 2.437-0.368 0.825-0.752 1.658-1.156 2.532-0.404 0.873-0.828 1.801-1.282 2.75-0.061 0.128-0.124 0.276-0.187 0.406 1.939 2.054 4.33 4.427 8.187 7.125-4.167-1.715-7-3.432-9.125-5.219-0.11 0.226-0.198 0.425-0.312 0.656-0.42 0.871-0.871 1.733-1.344 2.688-0.113 0.224-0.196 0.427-0.312 0.656-0.501 1.004-1.026 2.043-1.594 3.156-0.113 0.22-0.228 0.402-0.344 0.625-0.343 0.667-1.44 2.77-2.562 4.907-0.655 1.248-1.169 2.27-1.907 3.656-0.209 0.398-0.639 1.195-0.75 1.406 8.125-4.573 16.89-11.22 32.81-5.531-0.797-1.51-1.562-2.919-2.25-4.25-0.688-1.332-1.312-2.571-1.906-3.75s-1.143-2.291-1.657-3.344c-0.513-1.053-0.989-2.047-1.437-3s-0.885-1.87-1.281-2.75c-0.397-0.879-0.766-1.73-1.125-2.562-0.359-0.833-0.695-1.658-1.032-2.469-0.336-0.8115-0.672-1.59-1-2.406-0.142-0.3554-0.263-0.7338-0.406-1.094-0.888-2.085-1.759-4.152-2.812-6.625v2e-5z" fill="url(#a)"/>
</svg>
