<?xml version="1.0" encoding="UTF-8"?>
<svg enable-background="new 0 0 87.041 108.445" overflow="visible" version="1.1" viewBox="0 0 64 64" xml:space="preserve" xmlns="http://www.w3.org/2000/svg">
	<g fill="#a80030" stroke-width=".5901">
		<path d="m37.02 33.81c-1.06 0.01475 0.2006 0.5465 1.585 0.7595 0.3824-0.2986 0.7294-0.6008 1.039-0.8947-0.8622 0.2113-1.74 0.216-2.624 0.1351"/>
		<path d="m42.71 32.39c0.6314-0.8716 1.092-1.826 1.254-2.813-0.1416 0.7034-0.5235 1.311-0.8828 1.952-1.982 1.248-0.1865-0.7412-0.0012-1.497-2.132 2.683-0.2927 1.609-0.37 2.358"/>
		<path d="m44.81 26.93c0.1281-1.91-0.3759-1.306-0.5453-0.5772 0.1977 0.1027 0.3541 1.346 0.5453 0.5772"/>
		<path d="m33 0.8256c0.5659 0.1015 1.223 0.1794 1.131 0.3145 0.6191-0.1357 0.7595-0.2608-1.131-0.3145"/>
		<path d="m34.13 1.14-0.4001 0.08262 0.3724-0.03305 0.02774-0.04957"/>
		<path d="m51.78 27.65c0.06314 1.715-0.5016 2.547-1.011 4.02l-0.9165 0.4579c-0.7501 1.456 0.07259 0.9247-0.4644 2.083-1.171 1.041-3.553 3.258-4.316 3.46-0.5565-0.01239 0.3771-0.6568 0.4993-0.9094-1.567 1.076-1.258 1.616-3.655 2.27l-0.07023-0.1558c-5.912 2.781-14.12-2.731-14.02-10.25-0.06314 0.4774-0.1794 0.3582-0.3104 0.5512-0.3051-3.87 1.787-7.756 5.315-9.343 3.451-1.708 7.497-1.007 9.969 1.297-1.358-1.779-4.061-3.664-7.264-3.488-3.138 0.04957-6.073 2.044-7.053 4.208-1.608 1.012-1.794 3.901-2.495 4.43-0.9425 6.926 1.773 9.919 6.366 13.44 0.7229 0.4875 0.2036 0.5612 0.3016 0.9324-1.526-0.7147-2.924-1.793-4.073-3.114 0.6096 0.8923 1.268 1.76 2.118 2.441-1.439-0.4875-3.361-3.487-3.922-3.609 2.48 4.441 10.06 7.788 14.03 6.127-1.837 0.06787-4.171 0.03777-6.235-0.7253-0.8669-0.4461-2.046-1.37-1.835-1.543 5.419 2.024 11.02 1.533 15.7-2.225 1.193-0.9289 2.496-2.509 2.872-2.531-0.5671 0.8528 0.09678 0.4101-0.3387 1.163 1.189-1.917-0.5164-0.7802 1.229-3.31l0.6444 0.8876c-0.2396-1.591 1.976-3.523 1.751-6.039 0.5081-0.7695 0.5671 0.828 0.02774 2.598 0.7483-1.964 0.1971-2.28 0.3895-3.9 0.2077 0.5447 0.4804 1.124 0.6202 1.698-0.4875-1.898 0.5004-3.196 0.7448-4.299-0.2408-0.1068-0.7524 0.8392-0.8693-1.403 0.01711-0.9737 0.2709-0.5105 0.3688-0.7501-0.1912-0.1098-0.6928-0.8563-0.9979-2.288 0.2213-0.3364 0.5913 0.8722 0.8923 0.9218-0.1936-1.138-0.527-2.006-0.5406-2.88-0.8793-1.838-0.311 0.2449-1.024-0.789-0.936-2.919 0.7766-0.6775 0.8923-2.004 1.419 2.055 2.228 5.241 2.599 6.561-0.2833-1.609-0.7412-3.167-1.3-4.675 0.4308 0.1812-0.694-3.31 0.56-0.9979-1.34-4.929-5.733-9.534-9.775-11.7 0.4945 0.4526 1.119 1.021 0.8947 1.11-2.01-1.197-1.657-1.29-1.945-1.796-1.638-0.6663-1.745 0.0537-2.83 0.00118-3.086-1.637-3.681-1.463-6.522-2.489l0.1292 0.6037c-2.045-0.681-2.382 0.2585-4.592 0.00236-0.1346-0.105 0.7082-0.38 1.402-0.481-1.977 0.2608-1.884-0.3895-3.819 0.072 0.4768-0.3346 0.9808-0.5559 1.49-0.8404-1.612 0.09796-3.849 0.9383-3.158 0.1741-2.63 1.173-7.3 2.82-9.921 5.278l-0.08262-0.5506c-1.201 1.442-5.237 4.306-5.559 6.173l-0.321 0.07495c-0.625 1.058-1.029 2.257-1.525 3.346-0.8173 1.393-1.198 0.5358-1.082 0.7542-1.608 3.259-2.406 5.998-3.096 8.244 0.4916 0.7347 0.0118 4.423 0.1977 7.375-0.8073 14.58 10.23 28.73 22.3 32 1.769 0.6326 4.399 0.6084 6.636 0.6733-2.64-0.7548-2.981-0.4001-5.552-1.297-1.855-0.8734-2.261-1.871-3.575-3.011l0.5199 0.9188c-2.577-0.9118-1.498-1.128-3.595-1.792l0.5553-0.7253c-0.835-0.06315-2.212-1.407-2.588-2.152l-0.9135 0.036c-1.098-1.354-1.682-2.33-1.64-3.086l-0.2951 0.5258c-0.3346-0.5742-4.038-5.079-2.117-4.031-0.357-0.3263-0.8315-0.5311-1.346-1.466l0.3913-0.4473c-0.9247-1.19-1.702-2.715-1.643-3.223 0.4934 0.6663 0.8356 0.7908 1.174 0.9047-2.335-5.794-2.466-0.3193-4.235-5.898l0.3741-0.0301c-0.2868-0.432-0.4609-0.9011-0.6916-1.361l0.1629-1.623c-1.681-1.944-0.4703-8.265-0.2278-11.73 0.1682-1.41 1.403-2.911 2.343-5.264l-0.5724-0.09855c1.094-1.909 6.247-7.665 8.634-7.368 1.156-1.452-0.2296-0.0053-0.4556-0.3712 2.539-2.628 3.338-1.857 5.052-2.329 1.848-1.097-1.586 0.4279-0.7099-0.4184 3.195-0.8162 2.264-1.855 6.433-2.27 0.4397 0.2502-1.02 0.3865-1.387 0.7111 2.662-1.302 8.424-1.006 12.17 0.7229 4.343 2.029 9.222 8.029 9.414 13.67l0.2189 0.05901c-0.1109 2.244 0.3435 4.839-0.4438 7.222l0.5358-1.128"/>
		<path d="m25.44 35.27-0.1487 0.7436c0.697 0.9466 1.25 1.972 2.14 2.712-0.6403-1.25-1.116-1.766-1.991-3.456"/>
		<path d="m27.09 35.2c-0.3688-0.4078-0.5872-0.8988-0.8315-1.388 0.2337 0.8598 0.7123 1.599 1.158 2.35l-0.3263-0.9619"/>
		<path d="m56.25 28.87-0.1558 0.3907c-0.2856 2.029-0.9023 4.037-1.848 5.898 1.045-1.964 1.72-4.112 2.004-6.289"/>
		<path d="m33.21 0.3169c0.717-0.2626 1.763-0.144 2.523-0.3169-0.9914 0.08321-1.978 0.1328-2.952 0.2585l0.429 0.05842"/>
		<path d="m8.035 13.7c0.1652 1.53-1.151 2.123 0.2915 1.115 0.7731-1.742-0.3022-0.481-0.2915-1.115"/>
		<path d="m6.34 20.78c0.3322-1.02 0.3924-1.632 0.5193-2.222-0.9183 1.174-0.4225 1.424-0.5193 2.222"/>
	</g>
</svg>
