<?xml version="1.0" encoding="UTF-8"?>
<svg version="1.0" viewBox="0 0 64 64" xmlns="http://www.w3.org/2000/svg" xmlns:xlink="http://www.w3.org/1999/xlink">
    <path d="m64 32c0-17.67-14.33-32-32-32-17.67 0-31.99 14.32-32 31.98v24.76c0.009507 4.01 3.262 7.257 7.275 7.257h24.74c17.67-0.006927 31.99-14.33 31.99-32" fill="#294172" stroke-width=".2404"/>
    <path id="a" d="m18.45 34.07h11.5v11.5c0 6.348-5.152 11.5-11.5 11.5-6.348 0-11.5-5.152-11.5-11.5 0-6.348 5.152-11.5 11.5-11.5z" fill="none" stroke="#3c6eb4" stroke-width="7.021"/>
    <use transform="rotate(180 29.92 34.08)" width="100%" height="100%" xlink:href="#a"/>
    <path id="b" d="m33.47 30.56v14.99c0 8.294-6.725 15.02-15.02 15.02-1.258 0-2.153-0.1421-3.318-0.4465-1.698-0.4445-3.087-1.837-3.087-3.457 0-1.958 1.421-3.382 3.546-3.382 1.011 0 1.378 0.1941 2.859 0.1941 4.373 0 7.92-3.542 7.927-7.915v-6.888c0-0.6172-0.5016-1.117-1.12-1.117l-5.208-9.68e-4c-1.94 0-3.508-1.548-3.508-3.493-1e-3 -1.958 1.584-3.499 3.545-3.499" fill="#fff" stroke-width=".2404"/>
    <use transform="rotate(180 29.92 34.08)" width="100%" height="100%" xlink:href="#b"/>
    <path d="m58.48 58.46 1e-5 -1.33-0.6078 1.394-0.5917-1.394 1.11e-4 1.33h-0.3409v-2.1h0.3574l0.5851 1.341 0.5762-1.341h0.3619v2.1zm-2.484-1.748v1.748h-0.3563v-1.748h-0.5973v-0.3517h1.55v0.3517" fill="#3c6eb4" stroke-width=".2404"/>
</svg>
