<?xml version="1.0" encoding="UTF-8"?>
<svg version="1.1" viewBox="0 0 64 64" xmlns="http://www.w3.org/2000/svg">
    <g transform="matrix(2 0 0 2 -3.404 -2181)" fill="#73ba25">
        <g transform="matrix(.2646 0 0 .2646 -10.59 -38.47)" fill="#73ba25">
            <circle cx="507.5" cy="3583" r="0" opacity=".3"/>
            <path d="m100.5 4267a60.47 60.47 0 0 0-47.61 23.3c7.376 1.971 12.6 3.664 14.16 4.19 0.0245-0.9593 0.1836-9.539 0.1836-9.539s0.0202-0.1964 0.125-0.2988c0.135-0.1318 0.3301-0.092 0.3301-0.092 1.94 0.281 43.35 6.419 60.8 16.59 2.155 1.261 3.219 2.602 4.549 3.961 4.825 4.99 11.2 25.74 11.88 30.02 0.0269 0.1681-0.1808 0.3507-0.2695 0.4199h-2e-3c-0.4957 0.3868-1.036 0.789-1.576 1.148-4.13 2.771-13.64 9.431-25.85 8.344-10.96-0.97-25.29-7.26-42.56-18.64 1.698 3.976 3.371 7.964 5.045 11.95 2.501 1.299 26.64 13.6 38.55 13.36 9.596-0.1999 19.86-4.88 23.96-7.352 0 0 0.9023-0.5436 1.295-0.2402 0.4295 0.3318 0.3107 0.8402 0.209 1.359-0.2526 1.179-0.8276 3.329-1.219 4.35l-0.3301 0.832c-0.47 1.259-0.9211 2.43-1.791 3.15-2.419 2.199-6.279 3.949-12.33 6.578-9.35 4.09-24.52 6.691-38.6 6.602-5.044-0.1123-9.918-0.672-14.2-1.172-8.782-0.9915-15.93-1.796-20.29 1.356a60.47 60.47 0 0 0 45.52 20.77 60.47 60.47 0 0 0 60.47-60.47 60.47 60.47 0 0 0-60.47-60.47zm13.49 35.09c-4.733-0.1509-9.247 1.519-12.71 4.75-3.459 3.22-5.438 7.61-5.613 12.34-0.327 9.758 7.334 17.98 17.08 18.34 4.755 0.1596 9.258-1.512 12.72-4.762 3.45-3.21 5.429-7.6 5.613-12.33 0.335-9.749-7.335-17.99-17.1-18.34zm-0.1484 5.219c6.821 0.242 12.16 5.972 11.93 12.79-0.1053 3.288-1.493 6.337-3.902 8.598-2.413 2.25-5.567 3.42-8.877 3.32-6.805-0.251-12.15-5.988-11.92-12.81 0.1-3.301 1.515-6.35 3.914-8.6 2.399-2.25 5.538-3.42 8.85-3.301zm2.021 6.201c-3.031 0-5.478 1.631-5.478 3.66 0 2.01 2.448 3.65 5.478 3.65 3.029 0 5.486-1.64 5.486-3.65 0-2.029-2.456-3.66-5.486-3.66z"/>
        </g>
    </g>
</svg>
